<svg xmlns="http://www.w3.org/2000/svg" width="1600" height="900" viewBox="0 0 1600 900">
  <defs>
    <linearGradient id="orangeFade" x1="86" y1="0" x2="1320" y2="0" gradientUnits="userSpaceOnUse">
      <stop offset="0" stop-color="#ED5718" stop-opacity="0.25"/>
      <stop offset="0.5" stop-color="#ED5718" stop-opacity="0.09"/>
      <stop offset="1" stop-color="#ED5718" stop-opacity="0.015"/>
    </linearGradient>
    <linearGradient id="patternFade" x1="0" y1="0" x2="1" y2="0">
      <stop offset="0" stop-color="white" stop-opacity="0.9"/>
      <stop offset="0.6" stop-color="white" stop-opacity="0.48"/>
      <stop offset="1" stop-color="white" stop-opacity="0"/>
    </linearGradient>
    <mask id="fadeMask">
      <rect x="86" width="1234" height="900" fill="url(#patternFade)"/>
    </mask>
    <clipPath id="arcClip">
      <path d="M86 150 C520 142 1040 178 1320 450 C1040 722 520 740 86 732 Z"/>
    </clipPath>
    <pattern id="denseX" width="42" height="42" patternUnits="userSpaceOnUse">
      <path d="M15 15l12 12m0-12L15 27" fill="none" stroke="#ED5718" stroke-width="2" stroke-linecap="round"/>
    </pattern>
    <pattern id="mediumX" width="70" height="70" patternUnits="userSpaceOnUse">
      <path d="M28 28l14 14m0-14L28 42" fill="none" stroke="#ED5718" stroke-width="2" stroke-linecap="round"/>
    </pattern>
    <pattern id="sparseX" width="112" height="112" patternUnits="userSpaceOnUse">
      <path d="M48 48l16 16m0-16L48 64" fill="none" stroke="#ED5718" stroke-width="2" stroke-linecap="round"/>
    </pattern>
    <pattern id="edgeX" width="168" height="168" patternUnits="userSpaceOnUse">
      <path d="M75 75l18 18m0-18L75 93" fill="none" stroke="#ED5718" stroke-width="2" stroke-linecap="round"/>
    </pattern>
  </defs>
  <rect width="1600" height="900" fill="#F8F6F0"/>
  <path d="M86 150 C520 142 1040 178 1320 450 C1040 722 520 740 86 732 Z" fill="url(#orangeFade)"/>
  <g clip-path="url(#arcClip)" mask="url(#fadeMask)" opacity="0.54">
    <rect x="86" y="0" width="330" height="900" fill="url(#denseX)"/>
    <rect x="416" y="0" width="330" height="900" fill="url(#mediumX)"/>
    <rect x="746" y="0" width="320" height="900" fill="url(#sparseX)"/>
    <rect x="1066" y="0" width="254" height="900" fill="url(#edgeX)"/>
  </g>
</svg>
